<?xml version="1.0" encoding="UTF-8"?>
<svg width="146px" height="18px" viewBox="0 0 146 18" version="1.1" xmlns="http://www.w3.org/2000/svg" xmlns:xlink="http://www.w3.org/1999/xlink">
    <title>Saxon-Logo-Black</title>
    <g id="Symbols" stroke="none" stroke-width="1" fill="none" fill-rule="evenodd">
        <g id="Navigation" transform="translate(-30.000000, -32.000000)" fill-rule="nonzero">
            <g id="Saxon-Logo-Black" transform="translate(30.000000, 32.000000)">
                <path d="M42.9599417,0.397312454 L38.0829636,0.397312454 L27.4493147,17.609472 L32.3359597,17.609472 L34.36602,14.1525761 L46.6768854,14.1525761 L48.7069456,17.609472 L53.5839237,17.609472 L42.9599417,0.397312454 Z M44.6178243,10.6474669 L36.4009137,10.6474669 L40.5238694,3.68064037 L44.6178243,10.6474669 Z" id="Shape" fill="#1D1D1B"></path>
                <polygon id="Path" fill="#1D1D1B" points="146 0.397312454 146 17.609472 140.741177 17.609472 126.376084 5.37774966 126.376084 17.609472 121.83745 17.609472 121.83745 0.397312454 126.637092 0.397312454 141.475866 12.9809921 141.475866 0.397312454"></polygon>
                <path d="M0.0966695359,12.7351041 L0.236840363,12.6627841 C3.46560286,13.8777601 6.88287095,14.4273921 11.6003443,14.4273921 C16.6803284,14.4273921 18.8505595,13.6125868 18.8505595,12.4458241 C18.8505595,8.98892823 0,13.5450881 0,5.39221366 C0,1.86299775 3.89578229,0.00196313072 11.353837,0.00196313072 C14.8361244,-0.0342909218 18.3053792,0.431769422 21.653976,1.38568576 L21.653976,5.006507 L21.5089717,5.05472033 C18.2449677,4.08190788 14.8570925,3.58499042 11.4505065,3.57939237 C6.61702973,3.57939237 4.54346819,4.17241636 4.54346819,5.24757366 C4.54346819,8.70446957 23.3940277,4.28330702 23.3940277,12.3252908 C23.3940277,16.2594987 19.88009,18 11.3731709,18 C7.02304178,18 3.05475733,17.479296 0.116003443,16.5536 L0.0966695359,12.7351041 Z" id="Path" fill="#1D1D1B"></path>
                <polygon id="Path" fill="#000000" points="75.1557306 8.85875224 85.4945375 0.397312454 79.153016 0.397312454 71.9511355 6.26005364 64.7444216 0.397312454 58.4029001 0.397312454 68.7417069 8.85875224 58.0790571 17.609472 64.4737469 17.609472 71.9511355 11.4815575 79.4236907 17.609472 85.8232139 17.609472"></polygon>
                <path d="M102.953056,0.00196313072 C95.495001,0.00196313072 89.4676554,2.54762707 89.4676554,9.00339223 C89.4676554,15.4591574 95.495001,17.9903573 102.953056,17.9903573 C110.41111,17.9903573 116.409455,15.4543361 116.409455,9.00339223 C116.409455,2.5524484 110.357942,0.00196313072 102.953056,0.00196313072 Z M102.953056,14.4032854 C98.0277428,14.4032854 94.0401245,12.8797441 94.0401245,8.99374957 C94.0401245,5.107755 98.0035754,3.58903504 102.953056,3.58903504 C107.902536,3.58903504 111.861153,5.11739767 111.861153,9.00339223 C111.861153,12.8893868 107.849368,14.4129281 102.953056,14.4129281 L102.953056,14.4032854 Z" id="Shape" fill="#000000"></path>
            </g>
        </g>
    </g>
</svg>